HIERARCHY
ROOT Hips
{
	OFFSET 0.000000 88.474243 0.000000
	CHANNELS 6 Xposition Yposition Zposition Zrotation Yrotation Xrotation 
	JOINT Hips_Spine
	{
		OFFSET 0.000000 0.000000 0.000000
		CHANNELS 3 Zrotation Yrotation Xrotation
		JOINT Spine
		{
			OFFSET 0.005100 8.711998 -0.691000
			CHANNELS 3 Zrotation Yrotation Xrotation
			JOINT Spine1
			{
				OFFSET -0.009200 8.660301 -1.275000
				CHANNELS 3 Zrotation Yrotation Xrotation
				JOINT Spine2
				{
					OFFSET 0.006300 9.852501 -1.857000
					CHANNELS 3 Zrotation Yrotation Xrotation
					JOINT Spine2_Neck
					{
						OFFSET 0.000000 0.000000 0.000000
						CHANNELS 3 Zrotation Yrotation Xrotation
						JOINT Neck
						{
							OFFSET 0.016300 11.420799 -0.263300
							CHANNELS 3 Zrotation Yrotation Xrotation
							End Site #name: Head
							{
								OFFSET -0.019200 9.262405 2.362500
							}
						}
					}
					JOINT Spine2_LeftShoulder
					{
						OFFSET 0.000000 0.000000 0.000000
						CHANNELS 3 Zrotation Yrotation Xrotation
						JOINT LeftShoulder
						{
							OFFSET 5.616900 6.732201 -0.345700
							CHANNELS 3 Zrotation Yrotation Xrotation
							JOINT LeftArm
							{
								OFFSET 10.664888 -0.183372 -2.440700
								CHANNELS 3 Zrotation Yrotation Xrotation
								JOINT LeftForeArm
								{
									OFFSET 27.459126 0.000000 0.000000
									CHANNELS 3 Zrotation Yrotation Xrotation
									End Site #name: LeftHand
									{
										OFFSET 21.306858 0.000000 0.000000
									}
								}
							}
						}
					}
					JOINT Spine2_RightShoulder
					{
						OFFSET 0.000000 0.000000 0.000000
						CHANNELS 3 Zrotation Yrotation Xrotation
						JOINT RightShoulder
						{
							OFFSET -5.580300 6.737503 -0.344400
							CHANNELS 3 Zrotation Yrotation Xrotation
							JOINT RightArm
							{
								OFFSET -10.679335 -0.188484 -2.383900
								CHANNELS 3 Zrotation Yrotation Xrotation
								JOINT RightForeArm
								{
									OFFSET -27.503529 0.000000 0.000000
									CHANNELS 3 Zrotation Yrotation Xrotation
									End Site #name: RightHand
									{
										OFFSET -21.306808 0.000000 0.000000
									}
								}
							}
						}
					}
				}
			}
		}
	}
	JOINT Hips_LeftUpLeg
	{
		OFFSET 0.000000 0.000000 0.000000
		CHANNELS 3 Zrotation Yrotation Xrotation
		JOINT LeftUpLeg
		{
			OFFSET 6.857700 -6.739601 0.312100
			CHANNELS 3 Zrotation Yrotation Xrotation
			JOINT LeftLeg
			{
				OFFSET -0.367590 -34.731552 -4.572400
				CHANNELS 3 Zrotation Yrotation Xrotation
				End Site #name: LeftFoot
				{
					OFFSET 0.367590 -34.656704 -6.067400
				}
			}
		}
	}
	JOINT Hips_RightUpLeg
	{
		OFFSET 0.000000 0.000000 0.000000
		CHANNELS 3 Zrotation Yrotation Xrotation
		JOINT RightUpLeg
		{
			OFFSET -6.876100 -6.733299 0.301000
			CHANNELS 3 Zrotation Yrotation Xrotation
			JOINT RightLeg
			{
				OFFSET 0.347353 -34.795158 -4.515900
				CHANNELS 3 Zrotation Yrotation Xrotation
				End Site #name: RightFoot
				{
					OFFSET -0.347353 -34.589367 -6.070300
				}
			}
		}
	}
}
MOTION
Frames: 12
Frame Time: 0.041667
0.031863 0.014411 -0.022023 -4.424498 -0.315587 -3.425980 0.000000 0.000000 0.000000 2.829806 2.045290 17.983045 1.018421 1.226505 2.369986 0.000000 0.000000 0.000000 1.038903 1.000852 0.958743 1.541128 -0.777203 5.361716 1.109814 0.239568 2.909634 -9.251358 -10.490062 2.235914 -60.697264 4.330597 9.653285 0.791080 -19.037666 0.027245 1.742000 0.876507 2.943567 8.961367 -5.989359 0.156975 71.219424 9.241837 37.613162 -0.184855 21.327271 0.872025 0.000000 0.000000 0.000000 7.862876 7.991856 -66.809106 6.119561 -4.885915 63.225154 0.000000 0.000000 0.000000 -6.260675 -6.657328 -56.955970 -1.869321 -1.140946 60.672218 
0.063614 0.044125 -0.096896 -4.337465 0.606146 -1.706098 0.000000 -0.000000 0.000000 2.239158 0.389277 15.305460 0.870879 0.453064 2.186741 0.000000 0.000000 0.000000 0.977413 0.665533 1.897546 1.074558 -0.944324 5.403344 1.126468 0.699490 2.490129 -9.160247 -7.426737 1.031820 -66.126622 -0.146753 4.567164 0.064353 -23.291352 0.843897 0.707055 0.530661 2.396760 8.552873 -6.521923 0.063576 72.368532 11.545917 30.676113 0.074592 23.831968 0.440067 0.000000 0.000000 -0.000000 7.482846 8.413094 -69.372271 6.350183 -4.169118 62.931315 0.000000 0.000000 0.000000 -5.811867 -7.531534 -60.938025 -0.956854 -0.787968 61.893638 
0.073653 0.031283 -0.148688 -3.904442 1.355686 -1.090913 0.000000 0.000000 -0.000000 3.272620 0.225362 16.946856 0.659049 0.511270 2.096439 0.000000 0.000000 0.000000 0.766395 0.401880 1.894463 1.371677 -0.211224 4.963394 1.018853 0.656612 2.365178 -10.048956 -6.311336 0.724407 -65.034907 -0.056781 4.600963 0.097613 -22.956593 0.808025 0.656168 0.533686 2.479761 7.742588 -6.285489 -0.061468 71.993351 13.166595 28.545819 0.165815 26.990892 0.115146 -0.000000 0.000000 -0.000000 7.447355 7.842938 -70.326934 5.817951 -4.621414 62.848769 0.000000 0.000000 0.000000 -6.526430 -7.190018 -62.278441 -0.673881 -0.879974 63.089374 
0.081962 0.013983 -0.201756 -3.928410 1.718855 -0.984536 -0.000000 0.000000 -0.000000 3.477575 0.566291 17.975636 0.599125 0.444830 2.536612 0.000000 0.000000 0.000000 0.818824 0.421372 1.907582 1.128072 -0.224024 5.966465 0.904610 0.515974 2.449689 -8.487528 -5.210973 0.428752 -66.763103 -3.150619 1.868125 0.059772 -22.614622 0.866783 0.744988 0.516822 2.714816 7.446160 -6.504873 -0.129866 73.437820 15.017851 27.263308 0.132766 32.131369 -0.022409 -0.000000 0.000000 0.000000 7.436174 7.419576 -70.073945 5.614561 -4.762833 62.338737 0.000000 0.000000 0.000000 -6.663833 -7.501690 -63.087580 -0.168055 -0.765630 64.074868 
0.092152 0.004317 -0.250409 -3.975012 1.938580 -1.043904 -0.000000 0.000000 0.000000 3.481607 0.767657 18.757271 0.564712 0.373662 2.788103 0.000000 0.000000 0.000000 0.804842 0.402708 2.031521 1.174267 -0.320040 6.809074 0.847380 0.406068 2.483337 -7.931089 -4.424569 0.290524 -67.308358 -5.091496 -0.492002 0.098988 -23.520715 0.813577 0.736645 0.488421 2.961311 7.776217 -6.731810 -0.245903 74.469036 16.178556 26.490517 0.093826 36.056216 -0.083939 -0.000000 0.000000 -0.000000 7.372488 7.389608 -69.972951 5.486562 -4.682450 62.130430 0.000000 0.000000 0.000000 -6.831105 -7.578438 -63.662063 -0.019252 -0.792036 64.834094 
0.102887 -0.000359 -0.295106 -4.004950 1.959821 -1.116125 -0.000000 0.000000 0.000000 3.421917 0.632475 19.254330 0.570470 0.319471 2.932338 0.000000 0.000000 0.000000 0.780426 0.358732 2.171260 1.236002 -0.340782 7.277504 0.841684 0.349081 2.606712 -7.843162 -4.057984 0.227787 -67.196459 -5.657347 -0.691238 0.108512 -24.393659 0.782417 0.714482 0.442071 3.094147 8.001525 -6.604067 -0.224438 74.773846 17.031337 25.392812 0.059573 38.460016 -0.099281 -0.000000 0.000000 -0.000000 7.429480 7.561830 -69.969556 5.445668 -4.624172 62.335420 0.000000 0.000000 0.000000 -6.982353 -7.565885 -63.914021 -0.014371 -0.815805 65.264423 
0.113434 -0.000775 -0.337392 -4.035559 1.883550 -1.150363 -0.000000 0.000000 0.000000 3.425611 0.504887 19.581646 0.579425 0.285903 2.993041 0.000000 0.000000 0.000000 0.767538 0.326895 2.261401 1.273636 -0.374835 7.509713 0.848093 0.326307 2.673769 -7.763878 -3.564421 0.113048 -66.922315 -5.748758 -0.214578 0.116373 -25.440651 0.798782 0.697946 0.411917 3.139547 8.100170 -6.386518 -0.177414 74.830859 17.356672 24.632946 0.055597 39.765969 -0.067142 -0.000000 0.000000 -0.000000 7.522298 7.678141 -69.947040 5.457982 -4.586089 62.539149 0.000000 0.000000 0.000000 -7.046864 -7.550416 -63.946209 -0.020726 -0.808917 65.354491 
0.121514 0.000953 -0.377630 -4.053112 1.826999 -1.154411 -0.000000 0.000000 0.000000 3.426464 0.470087 19.665657 0.554077 0.278284 2.999147 0.000000 0.000000 0.000000 0.750024 0.308859 2.313550 1.264475 -0.397935 7.681622 0.844090 0.326120 2.716533 -7.620509 -3.114160 0.009526 -66.677184 -5.498693 0.481736 0.116949 -26.770154 0.812537 0.674045 0.408110 3.137524 8.033255 -6.178329 -0.117893 74.874846 17.297490 23.858842 0.071251 40.408015 -0.023761 -0.000000 0.000000 -0.000000 7.581234 7.684717 -69.953117 5.454400 -4.578732 62.655046 0.000000 0.000000 0.000000 -7.072597 -7.532972 -63.867869 -0.042865 -0.813637 65.286483 
0.124062 0.003553 -0.416574 -4.065336 1.799559 -1.134578 0.000000 0.000000 0.000000 3.416607 0.466284 19.697561 0.519808 0.289023 3.005606 0.000000 0.000000 0.000000 0.731889 0.304245 2.361439 1.225909 -0.427537 7.853005 0.825877 0.336238 2.751709 -7.368203 -2.621201 -0.107678 -66.564510 -4.986730 1.072064 0.114598 -27.974348 0.822695 0.644582 0.417518 3.141491 7.884366 -6.010673 -0.063537 75.002239 17.094815 22.942329 0.085173 41.182093 0.023559 -0.000000 0.000000 -0.000000 7.616730 7.658567 -69.985569 5.420925 -4.600357 62.722574 0.000000 0.000000 0.000000 -7.076627 -7.518753 -63.817901 -0.045029 -0.814843 65.220786 
0.122132 0.006372 -0.454546 -4.074720 1.789657 -1.117107 0.000000 0.000000 0.000000 3.425592 0.441147 19.816189 0.479200 0.305684 3.010356 0.000000 0.000000 0.000000 0.703617 0.305790 2.371988 1.177492 -0.452356 7.983987 0.800964 0.350153 2.760195 -7.087691 -2.111099 -0.239570 -66.572038 -4.537511 1.563271 0.114484 -29.002170 0.840695 0.607226 0.427890 3.132158 7.681445 -5.948129 -0.018375 75.275066 16.819328 21.874246 0.103554 42.492980 0.078911 -0.000000 0.000000 -0.000000 7.641722 7.611927 -70.011073 5.378846 -4.636157 62.730884 0.000000 0.000000 0.000000 -7.063815 -7.517450 -63.841531 -0.045069 -0.807663 65.229538 
0.116337 0.009648 -0.491722 -4.085309 1.795165 -1.106126 0.000000 0.000000 0.000000 3.451189 0.370806 20.024727 0.428720 0.319864 3.001389 0.000000 0.000000 0.000000 0.667800 0.305981 2.353225 1.127509 -0.468245 8.104418 0.768861 0.359985 2.750210 -6.842676 -1.634790 -0.363538 -66.664171 -4.278095 1.947293 0.118482 -29.736149 0.852500 0.564204 0.432727 3.101251 7.437071 -5.963548 0.019071 75.625623 16.519538 20.534079 0.131669 45.103223 0.140219 -0.000000 0.000000 -0.000000 7.663880 7.566385 -70.041218 5.337972 -4.669906 62.736758 0.000000 0.000000 0.000000 -7.050626 -7.517923 -63.906577 -0.050224 -0.802090 65.285502 
0.107317 0.013726 -0.528466 -4.093465 1.811044 -1.106244 0.000000 0.000000 0.000000 3.490315 0.277975 20.300675 0.394976 0.326265 3.002121 0.000000 0.000000 0.000000 0.627836 0.306337 2.318706 1.089778 -0.476844 8.211026 0.731098 0.364618 2.722418 -6.674073 -1.234277 -0.466328 -66.834849 -4.119106 2.286449 0.121365 -30.253517 0.860513 0.520378 0.433312 3.059640 7.138956 -6.013997 0.049056 75.874348 16.113750 18.792562 0.169595 50.066465 0.195949 -0.000000 0.000000 -0.000000 7.679283 7.535744 -70.075510 5.306143 -4.696881 62.757931 0.000000 0.000000 0.000000 -7.039386 -7.523344 -63.973229 -0.053855 -0.796076 65.362148 
